<svg xmlns="http://www.w3.org/2000/svg" width="7.6" height="7.6" viewBox="0 0 7.6 7.6">
  <g id="Line" fill="#d8d8d8" stroke-linecap="round" stroke-miterlimit="10">
    <path d="M6.575,7.424,3.8,4.648,1.024,7.424a.6.6,0,0,1-.849-.849L2.951,3.8.176,1.024A.6.6,0,0,1,1.024.176L3.8,2.951,6.575.176a.6.6,0,0,1,.849.849L4.648,3.8,7.424,6.575a.6.6,0,1,1-.849.849Z" stroke="none"/>
    <path d="M 7.000200271606445 7.600500106811523 C 6.84630012512207 7.600500106811523 6.692400455474854 7.54110050201416 6.575400352478027 7.424100399017334 L 3.799800395965576 4.648500442504883 L 1.024200320243835 7.424100399017334 C 0.9072002768516541 7.541550159454346 0.7537502646446228 7.60027551651001 0.6001877784729004 7.60027551651001 C 0.446625292301178 7.60027551651001 0.292950302362442 7.541550159454346 0.17550028860569 7.424100399017334 C -0.05849970877170563 7.190100193023682 -0.05849970877170563 6.810300350189209 0.17550028860569 6.575400352478027 L 2.95110034942627 3.799800395965576 L 0.17550028860569 1.024200320243835 C -0.05849970877170563 0.7902002930641174 -0.05849970877170563 0.4104003012180328 0.17550028860569 0.17550028860569 C 0.292950302362442 0.05850029364228249 0.446625292301178 2.918243353633443e-07 0.6001877784729004 2.918243353633443e-07 C 0.7537502646446228 2.918243353633443e-07 0.9072002768516541 0.05850029364228249 1.024200320243835 0.17550028860569 L 3.799800395965576 2.95110034942627 L 6.575400352478027 0.17550028860569 C 6.692850112915039 0.05850029364228249 6.846525192260742 2.918243353633443e-07 7.000087738037109 2.918243353633443e-07 C 7.153650283813477 2.918243353633443e-07 7.307100296020508 0.05850029364228249 7.424100399017334 0.17550028860569 C 7.659000396728516 0.4104003012180328 7.659000396728516 0.7902002930641174 7.424100399017334 1.024200320243835 L 4.648500442504883 3.799800395965576 L 7.424100399017334 6.575400352478027 C 7.659000396728516 6.810300350189209 7.659000396728516 7.190100193023682 7.424100399017334 7.424100399017334 C 7.307100296020508 7.54110050201416 7.15410041809082 7.600500106811523 7.000200271606445 7.600500106811523 Z" stroke="none" fill="#ccd6dd"/>
  </g>
</svg>
